<?xml version="1.0" encoding="UTF-8" standalone="no"?>
<svg id="svg2" xmlns:rdf="http://www.w3.org/1999/02/22-rdf-syntax-ns#" xmlns="http://www.w3.org/2000/svg" height="32" width="32" version="1.1" xmlns:cc="http://creativecommons.org/ns#" xmlns:dc="http://purl.org/dc/elements/1.1/" viewBox="0 0 31.999999 31.999998">
 <metadata id="metadata12">
  <rdf:RDF>
   <cc:Work rdf:about="">
    <dc:format>image/svg+xml</dc:format>
    <dc:type rdf:resource="http://purl.org/dc/dcmitype/StillImage"/>
   </cc:Work>
  </rdf:RDF>
 </metadata>
 <path id="path6" d="m27 12h2c0.554 0 1 0.446 1 1v8c0 0.554-0.446 1-1 1h-2c-0.554 0-1-0.446-1-1v-8c0-0.554 0.446-1 1-1zm-24 0h2c0.554 0 1 0.446 1 1v8c0 0.554-0.446 1-1 1h-2c-0.554 0-1-0.446-1-1v-8c0-0.554 0.446-1 1-1zm5 0v1.156 0.844 10.844c0 0.6463 0.446 1.1562 1 1.1562h1v3c0 0.554 0.446 1 1 1h2c0.554 0 1-0.446 1-1v-3h4v3c0 0.554 0.446 1 1 1h2c0.554 0 1-0.446 1-1v-3h1c0.554 0 1-0.5099 1-1.1562v-10.844-0.844-1.156h-1-14-1zm8-10.062c-4.4183 0-8 3.5967-8 8.0313 0 0.011-0.0000409 0.021 0 0.031h16c0.000041-0.011 0-0.021 0-0.031 0-4.4343-3.582-8.031-8-8.031zm-3.5 3.0625c0.82843 0 1.5 0.6716 1.5 1.5s-0.67157 1.5-1.5 1.5-1.5-0.6716-1.5-1.5 0.67157-1.5 1.5-1.5zm7 0c0.82843 0 1.5 0.6716 1.5 1.5s-0.67157 1.5-1.5 1.5-1.5-0.6716-1.5-1.5 0.67157-1.5 1.5-1.5z" style="color:#000000;fill:#d2d2d2"/>
</svg>
