<?xml version="1.0" encoding="UTF-8" standalone="no"?>
<svg id="svg2" xmlns:rdf="http://www.w3.org/1999/02/22-rdf-syntax-ns#" xmlns="http://www.w3.org/2000/svg" height="48" width="48" version="1.1" xmlns:cc="http://creativecommons.org/ns#" xmlns:dc="http://purl.org/dc/elements/1.1/" viewBox="0 0 48 48">
 <metadata id="metadata12">
  <rdf:RDF>
   <cc:Work rdf:about="">
    <dc:format>image/svg+xml</dc:format>
    <dc:type rdf:resource="http://purl.org/dc/dcmitype/StillImage"/>
   </cc:Work>
  </rdf:RDF>
 </metadata>
 <path id="path4" style="fill:#d2d2d2" d="m24 8v-6l-8 8 8 8v-6c6.63 0 12 5.37 12 12 0 2.03-0.51 3.93-1.39 5.61l2.92 2.92c1.55-2.48 2.47-5.39 2.47-8.53 0-8.84-7.16-16-16-16zm0 28c-6.63 0-12-5.37-12-12 0-2.03 0.51-3.93 1.39-5.61l-2.92-2.92c-1.55 2.48-2.47 5.39-2.47 8.53 0 8.84 7.16 16 16 16v6l8-8-8-8v6z"/>
 <path id="path6" style="fill:none" d="m0 0h48v48h-48z"/>
</svg>
