<?xml version="1.0" encoding="UTF-8" standalone="no"?>
<svg id="svg2" xmlns:rdf="http://www.w3.org/1999/02/22-rdf-syntax-ns#" xmlns="http://www.w3.org/2000/svg" version="1.1" xmlns:cc="http://creativecommons.org/ns#" xmlns:dc="http://purl.org/dc/elements/1.1/" viewBox="0 0 48 48">
 <metadata id="metadata12">
  <rdf:RDF>
   <cc:Work rdf:about="">
    <dc:format>image/svg+xml</dc:format>
    <dc:type rdf:resource="http://purl.org/dc/dcmitype/StillImage"/>
   </cc:Work>
  </rdf:RDF>
 </metadata>
 <path id="path4" style="fill:#d2d2d2" d="m24 14c-5.52 0-10 4.48-10 10s4.48 10 10 10 10-4.48 10-10-4.48-10-10-10zm0-10c-11.05 0-20 8.95-20 20s8.95 20 20 20 20-8.95 20-20-8.95-20-20-20zm0 36c-8.84 0-16-7.16-16-16s7.16-16 16-16 16 7.16 16 16-7.16 16-16 16z"/>
 <path id="path6" d="m0 0h48v48h-48z" fill="none"/>
</svg>
