<?xml version="1.0" encoding="UTF-8" standalone="no"?>
<svg id="svg4744" xmlns:rdf="http://www.w3.org/1999/02/22-rdf-syntax-ns#" xmlns="http://www.w3.org/2000/svg" viewBox="0 0 100 100" width="100" version="1.1" xmlns:cc="http://creativecommons.org/ns#" height="100" xmlns:dc="http://purl.org/dc/elements/1.1/">
 <metadata id="metadata4749">
  <rdf:RDF>
   <cc:Work rdf:about="">
    <dc:format>image/svg+xml</dc:format>
    <dc:type rdf:resource="http://purl.org/dc/dcmitype/StillImage"/>
    <dc:title/>
   </cc:Work>
  </rdf:RDF>
 </metadata>
 <g id="g5674">
  <path id="circle10199-6" style="stroke-opacity:0;color:#000000;fill:none" transform="rotate(-90)" d="m-19.382 45.151a31 31 0 0 1 0 9.6989"/>
  <path id="path5294-4-2" style="opacity:.75;stroke-width:10;color:#000000;stroke:#333;fill:none" d="m-23.837 23.837a37 37 0 0 1 10.837 26.163 37 37 0 0 1 -10.837 26.163" transform="rotate(-90)"/>
  <path id="circle12929-5" style="color-rendering:auto;text-decoration-color:#000000;color:#000000;shape-rendering:auto;solid-color:#000000;text-decoration-line:none;fill:#d2d2d2;mix-blend-mode:normal;block-progression:tb;text-indent:0;image-rendering:auto;white-space:normal;text-decoration-style:solid;isolation:auto;text-transform:none" d="m50 8c-0.01177 0-0.02339 0.00194-0.03516 0.00195-1.668 0.0014-3.325 0.108-4.965 0.3046v4.6934 6.1992c1.6436-0.25995 3.3146-0.39844 5-0.39844s3.3564 0.13849 5 0.39844v-6.199-4.6895c-1.6389-0.19653-3.2937-0.309-4.9609-0.31055-0.01305-0.0000121-0.02601 0-0.03906 0z"/>
  <path id="circle11130-2-0-5" style="stroke-width:2;color:#000000;stroke:#222;fill:none" transform="rotate(-90)" d="m-21.009 21.009a41 41 0 0 1 12.009 28.991 41 41 0 0 1 -12.009 28.991"/>
 </g>
</svg>
