<?xml version="1.0" encoding="UTF-8" standalone="no"?>
<svg id="svg2" xmlns:rdf="http://www.w3.org/1999/02/22-rdf-syntax-ns#" xmlns="http://www.w3.org/2000/svg" height="20" width="20" version="1.1" xmlns:cc="http://creativecommons.org/ns#" xmlns:dc="http://purl.org/dc/elements/1.1/">
 <metadata id="metadata12">
  <rdf:RDF>
   <cc:Work rdf:about="">
    <dc:format>image/svg+xml</dc:format>
    <dc:type rdf:resource="http://purl.org/dc/dcmitype/StillImage"/>
   </cc:Work>
  </rdf:RDF>
 </metadata>
 <path id="path4176" style="fill:#d2d2d2" d="m10.086 1a9 9 0 0 0 -9.0001 9 9 9 0 0 0 9.0001 9 9 9 0 0 0 8.012 -4.924c-0.119 0.011-0.233 0.037-0.354 0.037h-7.66c-2.2278 0-4.1133-1.885-4.1133-4.113 0-2.2278 1.8855-4.1133 4.1133-4.1133h7.66c0.125 0 0.243 0.0276 0.365 0.0391a9 9 0 0 0 -8.023 -4.9258z"/>
 <rect id="rect4168" ry="1.1699" style="fill:#d2d2d2" transform="rotate(90)" height="10" width="2.3399" y="-18.915" x="8.8301"/>
</svg>
